<svg xmlns="http://www.w3.org/2000/svg" xmlns:xlink="http://www.w3.org/1999/xlink" width="1024" height="400">\n<path  d="M 0 0
L 1024 0
L 1024 400
L 0 400
L 0 0" style="stroke-width:0;stroke:rgba(255,255,255,1.0);fill:rgba(255,255,255,1.0)"/><path  d="M 20 26
L 934 26
L 934 305
L 20 305
L 20 26" style="stroke-width:0;stroke:rgba(255,255,255,1.0);fill:rgba(255,255,255,1.0)"/><path  d="M 70 148
L 120 148
L 120 305
L 70 305
L 70 148" style="stroke-width:3;stroke:rgba(106,195,203,1.0);fill:rgba(106,195,203,1.0)"/><path  d="M 220 138
L 270 138
L 270 305
L 220 305
L 220 138" style="stroke-width:3;stroke:rgba(42,190,137,1.0);fill:rgba(42,190,137,1.0)"/><path  d="M 370 136
L 420 136
L 420 305
L 370 305
L 370 136" style="stroke-width:3;stroke:rgba(110,128,139,1.0);fill:rgba(110,128,139,1.0)"/><path  d="M 20 305
L 934 305" style="stroke-width:0;stroke:rgba(51,51,51,1.0);fill:none"/><path  d="M 20 305
L 20 310" style="stroke-width:0;stroke:rgba(51,51,51,1.0);fill:none"/><text x="82" y="327" style="stroke-width:0;stroke:none;fill:rgba(51,51,51,1.0);font-size:12.8px;font-family:'Roboto Medium',sans-serif">1.17</text><path  d="M 170 305
L 170 310" style="stroke-width:0;stroke:rgba(51,51,51,1.0);fill:none"/><text x="232" y="327" style="stroke-width:0;stroke:none;fill:rgba(51,51,51,1.0);font-size:12.8px;font-family:'Roboto Medium',sans-serif">1.18</text><path  d="M 320 305
L 320 310" style="stroke-width:0;stroke:rgba(51,51,51,1.0);fill:none"/><text x="366" y="327" style="stroke-width:0;stroke:none;fill:rgba(51,51,51,1.0);font-size:12.8px;font-family:'Roboto Medium',sans-serif">1.19beta1</text><path  d="M 934 26
L 934 305" style="stroke-width:0;stroke:rgba(51,51,51,1.0);fill:none"/><path  d="M 934 305
L 939 305" style="stroke-width:0;stroke:rgba(51,51,51,1.0);fill:none"/><path  d="M 934 305
L 939 305" style="stroke-width:0;stroke:rgba(51,51,51,1.0);fill:none"/><text x="949" y="311" style="stroke-width:0;stroke:none;fill:rgba(51,51,51,1.0);font-size:12.8px;font-family:'Roboto Medium',sans-serif">588.43</text><path  d="M 934 269
L 939 269" style="stroke-width:0;stroke:rgba(51,51,51,1.0);fill:none"/><text x="949" y="275" style="stroke-width:0;stroke:none;fill:rgba(51,51,51,1.0);font-size:12.8px;font-family:'Roboto Medium',sans-serif">728.43</text><path  d="M 934 234
L 939 234" style="stroke-width:0;stroke:rgba(51,51,51,1.0);fill:none"/><text x="949" y="240" style="stroke-width:0;stroke:none;fill:rgba(51,51,51,1.0);font-size:12.8px;font-family:'Roboto Medium',sans-serif">868.43</text><path  d="M 934 198
L 939 198" style="stroke-width:0;stroke:rgba(51,51,51,1.0);fill:none"/><text x="949" y="204" style="stroke-width:0;stroke:none;fill:rgba(51,51,51,1.0);font-size:12.8px;font-family:'Roboto Medium',sans-serif">1008.43</text><path  d="M 934 163
L 939 163" style="stroke-width:0;stroke:rgba(51,51,51,1.0);fill:none"/><text x="949" y="169" style="stroke-width:0;stroke:none;fill:rgba(51,51,51,1.0);font-size:12.8px;font-family:'Roboto Medium',sans-serif">1148.43</text><path  d="M 934 130
L 939 130" style="stroke-width:0;stroke:rgba(51,51,51,1.0);fill:none"/><text x="949" y="136" style="stroke-width:0;stroke:none;fill:rgba(51,51,51,1.0);font-size:12.8px;font-family:'Roboto Medium',sans-serif">1278.43</text><path  d="M 934 94
L 939 94" style="stroke-width:0;stroke:rgba(51,51,51,1.0);fill:none"/><text x="949" y="100" style="stroke-width:0;stroke:none;fill:rgba(51,51,51,1.0);font-size:12.8px;font-family:'Roboto Medium',sans-serif">1418.43</text><path  d="M 934 59
L 939 59" style="stroke-width:0;stroke:rgba(51,51,51,1.0);fill:none"/><text x="949" y="65" style="stroke-width:0;stroke:none;fill:rgba(51,51,51,1.0);font-size:12.8px;font-family:'Roboto Medium',sans-serif">1558.43</text><path  d="M 934 26
L 939 26" style="stroke-width:0;stroke:rgba(51,51,51,1.0);fill:none"/><text x="949" y="32" style="stroke-width:0;stroke:none;fill:rgba(51,51,51,1.0);font-size:12.8px;font-family:'Roboto Medium',sans-serif">1689.48</text><text x="457" y="25" style="stroke-width:0;stroke:none;fill:rgba(51,51,51,1.0);font-size:15.3px;font-family:'Roboto Medium',sans-serif">regexp_Compile</text></svg>