<svg xmlns="http://www.w3.org/2000/svg" xmlns:xlink="http://www.w3.org/1999/xlink" width="1024" height="400">\n<path  d="M 0 0
L 1024 0
L 1024 400
L 0 400
L 0 0" style="stroke-width:0;stroke:rgba(255,255,255,1.0);fill:rgba(255,255,255,1.0)"/><path  d="M 20 26
L 927 26
L 927 305
L 20 305
L 20 26" style="stroke-width:0;stroke:rgba(255,255,255,1.0);fill:rgba(255,255,255,1.0)"/><path  d="M 70 202
L 120 202
L 120 305
L 70 305
L 70 202" style="stroke-width:3;stroke:rgba(106,195,203,1.0);fill:rgba(106,195,203,1.0)"/><path  d="M 220 212
L 270 212
L 270 305
L 220 305
L 220 212" style="stroke-width:3;stroke:rgba(42,190,137,1.0);fill:rgba(42,190,137,1.0)"/><path  d="M 370 156
L 420 156
L 420 305
L 370 305
L 370 156" style="stroke-width:3;stroke:rgba(110,128,139,1.0);fill:rgba(110,128,139,1.0)"/><path  d="M 520 113
L 570 113
L 570 305
L 520 305
L 520 113" style="stroke-width:3;stroke:rgba(240,174,90,1.0);fill:rgba(240,174,90,1.0)"/><path  d="M 20 305
L 927 305" style="stroke-width:0;stroke:rgba(51,51,51,1.0);fill:none"/><path  d="M 20 305
L 20 310" style="stroke-width:0;stroke:rgba(51,51,51,1.0);fill:none"/><text x="82" y="327" style="stroke-width:0;stroke:none;fill:rgba(51,51,51,1.0);font-size:12.8px;font-family:'Roboto Medium',sans-serif">1.17</text><path  d="M 170 305
L 170 310" style="stroke-width:0;stroke:rgba(51,51,51,1.0);fill:none"/><text x="232" y="327" style="stroke-width:0;stroke:none;fill:rgba(51,51,51,1.0);font-size:12.8px;font-family:'Roboto Medium',sans-serif">1.18</text><path  d="M 320 305
L 320 310" style="stroke-width:0;stroke:rgba(51,51,51,1.0);fill:none"/><text x="382" y="327" style="stroke-width:0;stroke:none;fill:rgba(51,51,51,1.0);font-size:12.8px;font-family:'Roboto Medium',sans-serif">1.19</text><path  d="M 470 305
L 470 310" style="stroke-width:0;stroke:rgba(51,51,51,1.0);fill:none"/><text x="530" y="327" style="stroke-width:0;stroke:none;fill:rgba(51,51,51,1.0);font-size:12.8px;font-family:'Roboto Medium',sans-serif">gotip</text><path  d="M 927 26
L 927 305" style="stroke-width:0;stroke:rgba(51,51,51,1.0);fill:none"/><path  d="M 927 305
L 932 305" style="stroke-width:0;stroke:rgba(51,51,51,1.0);fill:none"/><path  d="M 927 305
L 932 305" style="stroke-width:0;stroke:rgba(51,51,51,1.0);fill:none"/><text x="942" y="311" style="stroke-width:0;stroke:none;fill:rgba(51,51,51,1.0);font-size:12.8px;font-family:'Roboto Medium',sans-serif">3260.39</text><path  d="M 927 268
L 932 268" style="stroke-width:0;stroke:rgba(51,51,51,1.0);fill:none"/><text x="942" y="274" style="stroke-width:0;stroke:none;fill:rgba(51,51,51,1.0);font-size:12.8px;font-family:'Roboto Medium',sans-serif">4560.39</text><path  d="M 927 232
L 932 232" style="stroke-width:0;stroke:rgba(51,51,51,1.0);fill:none"/><text x="942" y="238" style="stroke-width:0;stroke:none;fill:rgba(51,51,51,1.0);font-size:12.8px;font-family:'Roboto Medium',sans-serif">5860.39</text><path  d="M 927 199
L 932 199" style="stroke-width:0;stroke:rgba(51,51,51,1.0);fill:none"/><text x="942" y="205" style="stroke-width:0;stroke:none;fill:rgba(51,51,51,1.0);font-size:12.8px;font-family:'Roboto Medium',sans-serif">7060.39</text><path  d="M 927 163
L 932 163" style="stroke-width:0;stroke:rgba(51,51,51,1.0);fill:none"/><text x="942" y="169" style="stroke-width:0;stroke:none;fill:rgba(51,51,51,1.0);font-size:12.8px;font-family:'Roboto Medium',sans-serif">8360.39</text><path  d="M 927 129
L 932 129" style="stroke-width:0;stroke:rgba(51,51,51,1.0);fill:none"/><text x="942" y="135" style="stroke-width:0;stroke:none;fill:rgba(51,51,51,1.0);font-size:12.8px;font-family:'Roboto Medium',sans-serif">9560.39</text><path  d="M 927 93
L 932 93" style="stroke-width:0;stroke:rgba(51,51,51,1.0);fill:none"/><text x="942" y="99" style="stroke-width:0;stroke:none;fill:rgba(51,51,51,1.0);font-size:12.8px;font-family:'Roboto Medium',sans-serif">10860.39</text><path  d="M 927 60
L 932 60" style="stroke-width:0;stroke:rgba(51,51,51,1.0);fill:none"/><text x="942" y="66" style="stroke-width:0;stroke:none;fill:rgba(51,51,51,1.0);font-size:12.8px;font-family:'Roboto Medium',sans-serif">12060.39</text><path  d="M 927 26
L 932 26" style="stroke-width:0;stroke:rgba(51,51,51,1.0);fill:none"/><text x="942" y="32" style="stroke-width:0;stroke:none;fill:rgba(51,51,51,1.0);font-size:12.8px;font-family:'Roboto Medium',sans-serif">13287.90</text><text x="476" y="25" style="stroke-width:0;stroke:none;fill:rgba(51,51,51,1.0);font-size:15.3px;font-family:'Roboto Medium',sans-serif">MergeSort</text></svg>