<svg xmlns="http://www.w3.org/2000/svg" xmlns:xlink="http://www.w3.org/1999/xlink" width="1024" height="400">\n<path  d="M 0 0
L 1024 0
L 1024 400
L 0 400
L 0 0" style="stroke-width:0;stroke:rgba(255,255,255,1.0);fill:rgba(255,255,255,1.0)"/><path  d="M 20 26
L 934 26
L 934 305
L 20 305
L 20 26" style="stroke-width:0;stroke:rgba(255,255,255,1.0);fill:rgba(255,255,255,1.0)"/><path  d="M 70 148
L 120 148
L 120 305
L 70 305
L 70 148" style="stroke-width:3;stroke:rgba(106,195,203,1.0);fill:rgba(106,195,203,1.0)"/><path  d="M 220 132
L 270 132
L 270 305
L 220 305
L 220 132" style="stroke-width:3;stroke:rgba(42,190,137,1.0);fill:rgba(42,190,137,1.0)"/><path  d="M 370 127
L 420 127
L 420 305
L 370 305
L 370 127" style="stroke-width:3;stroke:rgba(110,128,139,1.0);fill:rgba(110,128,139,1.0)"/><path  d="M 520 153
L 570 153
L 570 305
L 520 305
L 520 153" style="stroke-width:3;stroke:rgba(240,174,90,1.0);fill:rgba(240,174,90,1.0)"/><path  d="M 20 305
L 934 305" style="stroke-width:0;stroke:rgba(51,51,51,1.0);fill:none"/><path  d="M 20 305
L 20 310" style="stroke-width:0;stroke:rgba(51,51,51,1.0);fill:none"/><text x="82" y="327" style="stroke-width:0;stroke:none;fill:rgba(51,51,51,1.0);font-size:12.8px;font-family:'Roboto Medium',sans-serif">1.17</text><path  d="M 170 305
L 170 310" style="stroke-width:0;stroke:rgba(51,51,51,1.0);fill:none"/><text x="232" y="327" style="stroke-width:0;stroke:none;fill:rgba(51,51,51,1.0);font-size:12.8px;font-family:'Roboto Medium',sans-serif">1.18</text><path  d="M 320 305
L 320 310" style="stroke-width:0;stroke:rgba(51,51,51,1.0);fill:none"/><text x="382" y="327" style="stroke-width:0;stroke:none;fill:rgba(51,51,51,1.0);font-size:12.8px;font-family:'Roboto Medium',sans-serif">1.19</text><path  d="M 470 305
L 470 310" style="stroke-width:0;stroke:rgba(51,51,51,1.0);fill:none"/><text x="530" y="327" style="stroke-width:0;stroke:none;fill:rgba(51,51,51,1.0);font-size:12.8px;font-family:'Roboto Medium',sans-serif">gotip</text><path  d="M 934 26
L 934 305" style="stroke-width:0;stroke:rgba(51,51,51,1.0);fill:none"/><path  d="M 934 305
L 939 305" style="stroke-width:0;stroke:rgba(51,51,51,1.0);fill:none"/><path  d="M 934 305
L 939 305" style="stroke-width:0;stroke:rgba(51,51,51,1.0);fill:none"/><text x="949" y="311" style="stroke-width:0;stroke:none;fill:rgba(51,51,51,1.0);font-size:12.8px;font-family:'Roboto Medium',sans-serif">528.36</text><path  d="M 934 268
L 939 268" style="stroke-width:0;stroke:rgba(51,51,51,1.0);fill:none"/><text x="949" y="274" style="stroke-width:0;stroke:none;fill:rgba(51,51,51,1.0);font-size:12.8px;font-family:'Roboto Medium',sans-serif">658.36</text><path  d="M 934 232
L 939 232" style="stroke-width:0;stroke:rgba(51,51,51,1.0);fill:none"/><text x="949" y="238" style="stroke-width:0;stroke:none;fill:rgba(51,51,51,1.0);font-size:12.8px;font-family:'Roboto Medium',sans-serif">788.36</text><path  d="M 934 199
L 939 199" style="stroke-width:0;stroke:rgba(51,51,51,1.0);fill:none"/><text x="949" y="205" style="stroke-width:0;stroke:none;fill:rgba(51,51,51,1.0);font-size:12.8px;font-family:'Roboto Medium',sans-serif">908.36</text><path  d="M 934 163
L 939 163" style="stroke-width:0;stroke:rgba(51,51,51,1.0);fill:none"/><text x="949" y="169" style="stroke-width:0;stroke:none;fill:rgba(51,51,51,1.0);font-size:12.8px;font-family:'Roboto Medium',sans-serif">1038.36</text><path  d="M 934 129
L 939 129" style="stroke-width:0;stroke:rgba(51,51,51,1.0);fill:none"/><text x="949" y="135" style="stroke-width:0;stroke:none;fill:rgba(51,51,51,1.0);font-size:12.8px;font-family:'Roboto Medium',sans-serif">1158.36</text><path  d="M 934 93
L 939 93" style="stroke-width:0;stroke:rgba(51,51,51,1.0);fill:none"/><text x="949" y="99" style="stroke-width:0;stroke:none;fill:rgba(51,51,51,1.0);font-size:12.8px;font-family:'Roboto Medium',sans-serif">1288.36</text><path  d="M 934 60
L 939 60" style="stroke-width:0;stroke:rgba(51,51,51,1.0);fill:none"/><text x="949" y="66" style="stroke-width:0;stroke:none;fill:rgba(51,51,51,1.0);font-size:12.8px;font-family:'Roboto Medium',sans-serif">1408.36</text><path  d="M 934 26
L 939 26" style="stroke-width:0;stroke:rgba(51,51,51,1.0);fill:none"/><text x="949" y="32" style="stroke-width:0;stroke:none;fill:rgba(51,51,51,1.0);font-size:12.8px;font-family:'Roboto Medium',sans-serif">1531.26</text><text x="457" y="25" style="stroke-width:0;stroke:none;fill:rgba(51,51,51,1.0);font-size:15.3px;font-family:'Roboto Medium',sans-serif">regexp_Compile</text></svg>