<svg xmlns="http://www.w3.org/2000/svg" xmlns:xlink="http://www.w3.org/1999/xlink" width="1024" height="400">\n<path  d="M 0 0
L 1024 0
L 1024 400
L 0 400
L 0 0" style="stroke-width:0;stroke:rgba(255,255,255,1.0);fill:rgba(255,255,255,1.0)"/><path  d="M 20 26
L 927 26
L 927 305
L 20 305
L 20 26" style="stroke-width:0;stroke:rgba(255,255,255,1.0);fill:rgba(255,255,255,1.0)"/><path  d="M 70 260
L 120 260
L 120 305
L 70 305
L 70 260" style="stroke-width:3;stroke:rgba(106,195,203,1.0);fill:rgba(106,195,203,1.0)"/><path  d="M 220 260
L 270 260
L 270 305
L 220 305
L 220 260" style="stroke-width:3;stroke:rgba(42,190,137,1.0);fill:rgba(42,190,137,1.0)"/><path  d="M 370 259
L 420 259
L 420 305
L 370 305
L 370 259" style="stroke-width:3;stroke:rgba(110,128,139,1.0);fill:rgba(110,128,139,1.0)"/><path  d="M 520 259
L 570 259
L 570 305
L 520 305
L 520 259" style="stroke-width:3;stroke:rgba(240,174,90,1.0);fill:rgba(240,174,90,1.0)"/><path  d="M 20 305
L 927 305" style="stroke-width:0;stroke:rgba(51,51,51,1.0);fill:none"/><path  d="M 20 305
L 20 310" style="stroke-width:0;stroke:rgba(51,51,51,1.0);fill:none"/><text x="82" y="327" style="stroke-width:0;stroke:none;fill:rgba(51,51,51,1.0);font-size:12.8px;font-family:'Roboto Medium',sans-serif">1.17</text><path  d="M 170 305
L 170 310" style="stroke-width:0;stroke:rgba(51,51,51,1.0);fill:none"/><text x="232" y="327" style="stroke-width:0;stroke:none;fill:rgba(51,51,51,1.0);font-size:12.8px;font-family:'Roboto Medium',sans-serif">1.18</text><path  d="M 320 305
L 320 310" style="stroke-width:0;stroke:rgba(51,51,51,1.0);fill:none"/><text x="382" y="327" style="stroke-width:0;stroke:none;fill:rgba(51,51,51,1.0);font-size:12.8px;font-family:'Roboto Medium',sans-serif">1.19</text><path  d="M 470 305
L 470 310" style="stroke-width:0;stroke:rgba(51,51,51,1.0);fill:none"/><text x="530" y="327" style="stroke-width:0;stroke:none;fill:rgba(51,51,51,1.0);font-size:12.8px;font-family:'Roboto Medium',sans-serif">gotip</text><path  d="M 927 26
L 927 305" style="stroke-width:0;stroke:rgba(51,51,51,1.0);fill:none"/><path  d="M 927 305
L 932 305" style="stroke-width:0;stroke:rgba(51,51,51,1.0);fill:none"/><path  d="M 927 305
L 932 305" style="stroke-width:0;stroke:rgba(51,51,51,1.0);fill:none"/><text x="942" y="311" style="stroke-width:0;stroke:none;fill:rgba(51,51,51,1.0);font-size:12.8px;font-family:'Roboto Medium',sans-serif">2211.34</text><path  d="M 927 268
L 932 268" style="stroke-width:0;stroke:rgba(51,51,51,1.0);fill:none"/><text x="942" y="274" style="stroke-width:0;stroke:none;fill:rgba(51,51,51,1.0);font-size:12.8px;font-family:'Roboto Medium',sans-serif">4511.34</text><path  d="M 927 233
L 932 233" style="stroke-width:0;stroke:rgba(51,51,51,1.0);fill:none"/><text x="942" y="239" style="stroke-width:0;stroke:none;fill:rgba(51,51,51,1.0);font-size:12.8px;font-family:'Roboto Medium',sans-serif">6711.34</text><path  d="M 927 199
L 932 199" style="stroke-width:0;stroke:rgba(51,51,51,1.0);fill:none"/><text x="942" y="205" style="stroke-width:0;stroke:none;fill:rgba(51,51,51,1.0);font-size:12.8px;font-family:'Roboto Medium',sans-serif">8911.34</text><path  d="M 927 164
L 932 164" style="stroke-width:0;stroke:rgba(51,51,51,1.0);fill:none"/><text x="942" y="170" style="stroke-width:0;stroke:none;fill:rgba(51,51,51,1.0);font-size:12.8px;font-family:'Roboto Medium',sans-serif">11111.34</text><path  d="M 927 129
L 932 129" style="stroke-width:0;stroke:rgba(51,51,51,1.0);fill:none"/><text x="942" y="135" style="stroke-width:0;stroke:none;fill:rgba(51,51,51,1.0);font-size:12.8px;font-family:'Roboto Medium',sans-serif">13311.34</text><path  d="M 927 94
L 932 94" style="stroke-width:0;stroke:rgba(51,51,51,1.0);fill:none"/><text x="942" y="100" style="stroke-width:0;stroke:none;fill:rgba(51,51,51,1.0);font-size:12.8px;font-family:'Roboto Medium',sans-serif">15511.34</text><path  d="M 927 60
L 932 60" style="stroke-width:0;stroke:rgba(51,51,51,1.0);fill:none"/><text x="942" y="66" style="stroke-width:0;stroke:none;fill:rgba(51,51,51,1.0);font-size:12.8px;font-family:'Roboto Medium',sans-serif">17711.34</text><path  d="M 927 26
L 932 26" style="stroke-width:0;stroke:rgba(51,51,51,1.0);fill:none"/><text x="942" y="32" style="stroke-width:0;stroke:none;fill:rgba(51,51,51,1.0);font-size:12.8px;font-family:'Roboto Medium',sans-serif">19866.85</text><text x="466" y="25" style="stroke-width:0;stroke:none;fill:rgba(51,51,51,1.0);font-size:15.3px;font-family:'Roboto Medium',sans-serif">Sort_Random</text></svg>