<svg xmlns="http://www.w3.org/2000/svg" xmlns:xlink="http://www.w3.org/1999/xlink" width="1024" height="400">\n<path  d="M 0 0
L 1024 0
L 1024 400
L 0 400
L 0 0" style="stroke-width:0;stroke:rgba(255,255,255,1.0);fill:rgba(255,255,255,1.0)"/><path  d="M 20 26
L 934 26
L 934 305
L 20 305
L 20 26" style="stroke-width:0;stroke:rgba(255,255,255,1.0);fill:rgba(255,255,255,1.0)"/><path  d="M 70 143
L 120 143
L 120 305
L 70 305
L 70 143" style="stroke-width:3;stroke:rgba(106,195,203,1.0);fill:rgba(106,195,203,1.0)"/><path  d="M 220 144
L 270 144
L 270 305
L 220 305
L 220 144" style="stroke-width:3;stroke:rgba(42,190,137,1.0);fill:rgba(42,190,137,1.0)"/><path  d="M 370 140
L 420 140
L 420 305
L 370 305
L 370 140" style="stroke-width:3;stroke:rgba(110,128,139,1.0);fill:rgba(110,128,139,1.0)"/><path  d="M 520 140
L 570 140
L 570 305
L 520 305
L 520 140" style="stroke-width:3;stroke:rgba(240,174,90,1.0);fill:rgba(240,174,90,1.0)"/><path  d="M 20 305
L 934 305" style="stroke-width:0;stroke:rgba(51,51,51,1.0);fill:none"/><path  d="M 20 305
L 20 310" style="stroke-width:0;stroke:rgba(51,51,51,1.0);fill:none"/><text x="82" y="327" style="stroke-width:0;stroke:none;fill:rgba(51,51,51,1.0);font-size:12.8px;font-family:'Roboto Medium',sans-serif">1.17</text><path  d="M 170 305
L 170 310" style="stroke-width:0;stroke:rgba(51,51,51,1.0);fill:none"/><text x="232" y="327" style="stroke-width:0;stroke:none;fill:rgba(51,51,51,1.0);font-size:12.8px;font-family:'Roboto Medium',sans-serif">1.18</text><path  d="M 320 305
L 320 310" style="stroke-width:0;stroke:rgba(51,51,51,1.0);fill:none"/><text x="382" y="327" style="stroke-width:0;stroke:none;fill:rgba(51,51,51,1.0);font-size:12.8px;font-family:'Roboto Medium',sans-serif">1.19</text><path  d="M 470 305
L 470 310" style="stroke-width:0;stroke:rgba(51,51,51,1.0);fill:none"/><text x="530" y="327" style="stroke-width:0;stroke:none;fill:rgba(51,51,51,1.0);font-size:12.8px;font-family:'Roboto Medium',sans-serif">gotip</text><path  d="M 934 26
L 934 305" style="stroke-width:0;stroke:rgba(51,51,51,1.0);fill:none"/><path  d="M 934 305
L 939 305" style="stroke-width:0;stroke:rgba(51,51,51,1.0);fill:none"/><path  d="M 934 305
L 939 305" style="stroke-width:0;stroke:rgba(51,51,51,1.0);fill:none"/><text x="949" y="311" style="stroke-width:0;stroke:none;fill:rgba(51,51,51,1.0);font-size:12.8px;font-family:'Roboto Medium',sans-serif">3007.92</text><path  d="M 934 269
L 939 269" style="stroke-width:0;stroke:rgba(51,51,51,1.0);fill:none"/><text x="949" y="275" style="stroke-width:0;stroke:none;fill:rgba(51,51,51,1.0);font-size:12.8px;font-family:'Roboto Medium',sans-serif">3667.92</text><path  d="M 934 234
L 939 234" style="stroke-width:0;stroke:rgba(51,51,51,1.0);fill:none"/><text x="949" y="240" style="stroke-width:0;stroke:none;fill:rgba(51,51,51,1.0);font-size:12.8px;font-family:'Roboto Medium',sans-serif">4327.92</text><path  d="M 934 200
L 939 200" style="stroke-width:0;stroke:rgba(51,51,51,1.0);fill:none"/><text x="949" y="206" style="stroke-width:0;stroke:none;fill:rgba(51,51,51,1.0);font-size:12.8px;font-family:'Roboto Medium',sans-serif">4977.92</text><path  d="M 934 165
L 939 165" style="stroke-width:0;stroke:rgba(51,51,51,1.0);fill:none"/><text x="949" y="171" style="stroke-width:0;stroke:none;fill:rgba(51,51,51,1.0);font-size:12.8px;font-family:'Roboto Medium',sans-serif">5637.92</text><path  d="M 934 130
L 939 130" style="stroke-width:0;stroke:rgba(51,51,51,1.0);fill:none"/><text x="949" y="136" style="stroke-width:0;stroke:none;fill:rgba(51,51,51,1.0);font-size:12.8px;font-family:'Roboto Medium',sans-serif">6297.92</text><path  d="M 934 95
L 939 95" style="stroke-width:0;stroke:rgba(51,51,51,1.0);fill:none"/><text x="949" y="101" style="stroke-width:0;stroke:none;fill:rgba(51,51,51,1.0);font-size:12.8px;font-family:'Roboto Medium',sans-serif">6947.92</text><path  d="M 934 60
L 939 60" style="stroke-width:0;stroke:rgba(51,51,51,1.0);fill:none"/><text x="949" y="66" style="stroke-width:0;stroke:none;fill:rgba(51,51,51,1.0);font-size:12.8px;font-family:'Roboto Medium',sans-serif">7607.92</text><path  d="M 934 26
L 939 26" style="stroke-width:0;stroke:rgba(51,51,51,1.0);fill:none"/><text x="949" y="32" style="stroke-width:0;stroke:none;fill:rgba(51,51,51,1.0);font-size:12.8px;font-family:'Roboto Medium',sans-serif">8259.93</text><text x="466" y="25" style="stroke-width:0;stroke:none;fill:rgba(51,51,51,1.0);font-size:15.3px;font-family:'Roboto Medium',sans-serif">Sort_Random</text></svg>