<svg xmlns="http://www.w3.org/2000/svg" xmlns:xlink="http://www.w3.org/1999/xlink" width="1024" height="400">\n<path  d="M 0 0
L 1024 0
L 1024 400
L 0 400
L 0 0" style="stroke-width:0;stroke:rgba(255,255,255,1.0);fill:rgba(255,255,255,1.0)"/><path  d="M 20 26
L 927 26
L 927 305
L 20 305
L 20 26" style="stroke-width:0;stroke:rgba(255,255,255,1.0);fill:rgba(255,255,255,1.0)"/><path  d="M 70 246
L 120 246
L 120 305
L 70 305
L 70 246" style="stroke-width:3;stroke:rgba(106,195,203,1.0);fill:rgba(106,195,203,1.0)"/><path  d="M 220 234
L 270 234
L 270 305
L 220 305
L 220 234" style="stroke-width:3;stroke:rgba(42,190,137,1.0);fill:rgba(42,190,137,1.0)"/><path  d="M 370 238
L 420 238
L 420 305
L 370 305
L 370 238" style="stroke-width:3;stroke:rgba(110,128,139,1.0);fill:rgba(110,128,139,1.0)"/><path  d="M 520 242
L 570 242
L 570 305
L 520 305
L 520 242" style="stroke-width:3;stroke:rgba(240,174,90,1.0);fill:rgba(240,174,90,1.0)"/><path  d="M 670 234
L 720 234
L 720 305
L 670 305
L 670 234" style="stroke-width:3;stroke:rgba(0,116,217,1.0);fill:rgba(0,116,217,1.0)"/><path  d="M 820 239
L 870 239
L 870 305
L 820 305
L 820 239" style="stroke-width:3;stroke:rgba(0,217,101,1.0);fill:rgba(0,217,101,1.0)"/><path  d="M 20 305
L 927 305" style="stroke-width:0;stroke:rgba(51,51,51,1.0);fill:none"/><path  d="M 20 305
L 20 310" style="stroke-width:0;stroke:rgba(51,51,51,1.0);fill:none"/><text x="82" y="327" style="stroke-width:0;stroke:none;fill:rgba(51,51,51,1.0);font-size:12.8px;font-family:'Roboto Medium',sans-serif">1.17</text><path  d="M 170 305
L 170 310" style="stroke-width:0;stroke:rgba(51,51,51,1.0);fill:none"/><text x="232" y="327" style="stroke-width:0;stroke:none;fill:rgba(51,51,51,1.0);font-size:12.8px;font-family:'Roboto Medium',sans-serif">1.18</text><path  d="M 320 305
L 320 310" style="stroke-width:0;stroke:rgba(51,51,51,1.0);fill:none"/><text x="366" y="327" style="stroke-width:0;stroke:none;fill:rgba(51,51,51,1.0);font-size:12.8px;font-family:'Roboto Medium',sans-serif">1.19beta1</text><path  d="M 470 305
L 470 310" style="stroke-width:0;stroke:rgba(51,51,51,1.0);fill:none"/><text x="523" y="327" style="stroke-width:0;stroke:none;fill:rgba(51,51,51,1.0);font-size:12.8px;font-family:'Roboto Medium',sans-serif">1.19rc1</text><path  d="M 620 305
L 620 310" style="stroke-width:0;stroke:rgba(51,51,51,1.0);fill:none"/><text x="673" y="327" style="stroke-width:0;stroke:none;fill:rgba(51,51,51,1.0);font-size:12.8px;font-family:'Roboto Medium',sans-serif">1.19rc2</text><path  d="M 770 305
L 770 310" style="stroke-width:0;stroke:rgba(51,51,51,1.0);fill:none"/><text x="830" y="327" style="stroke-width:0;stroke:none;fill:rgba(51,51,51,1.0);font-size:12.8px;font-family:'Roboto Medium',sans-serif">gotip</text><path  d="M 927 26
L 927 305" style="stroke-width:0;stroke:rgba(51,51,51,1.0);fill:none"/><path  d="M 927 305
L 932 305" style="stroke-width:0;stroke:rgba(51,51,51,1.0);fill:none"/><path  d="M 927 305
L 932 305" style="stroke-width:0;stroke:rgba(51,51,51,1.0);fill:none"/><text x="942" y="311" style="stroke-width:0;stroke:none;fill:rgba(51,51,51,1.0);font-size:12.8px;font-family:'Roboto Medium',sans-serif">1768.59</text><path  d="M 927 268
L 932 268" style="stroke-width:0;stroke:rgba(51,51,51,1.0);fill:none"/><text x="942" y="274" style="stroke-width:0;stroke:none;fill:rgba(51,51,51,1.0);font-size:12.8px;font-family:'Roboto Medium',sans-serif">3568.59</text><path  d="M 927 234
L 932 234" style="stroke-width:0;stroke:rgba(51,51,51,1.0);fill:none"/><text x="942" y="240" style="stroke-width:0;stroke:none;fill:rgba(51,51,51,1.0);font-size:12.8px;font-family:'Roboto Medium',sans-serif">5268.59</text><path  d="M 927 198
L 932 198" style="stroke-width:0;stroke:rgba(51,51,51,1.0);fill:none"/><text x="942" y="204" style="stroke-width:0;stroke:none;fill:rgba(51,51,51,1.0);font-size:12.8px;font-family:'Roboto Medium',sans-serif">7068.59</text><path  d="M 927 164
L 932 164" style="stroke-width:0;stroke:rgba(51,51,51,1.0);fill:none"/><text x="942" y="170" style="stroke-width:0;stroke:none;fill:rgba(51,51,51,1.0);font-size:12.8px;font-family:'Roboto Medium',sans-serif">8768.59</text><path  d="M 927 130
L 932 130" style="stroke-width:0;stroke:rgba(51,51,51,1.0);fill:none"/><text x="942" y="136" style="stroke-width:0;stroke:none;fill:rgba(51,51,51,1.0);font-size:12.8px;font-family:'Roboto Medium',sans-serif">10468.59</text><path  d="M 927 94
L 932 94" style="stroke-width:0;stroke:rgba(51,51,51,1.0);fill:none"/><text x="942" y="100" style="stroke-width:0;stroke:none;fill:rgba(51,51,51,1.0);font-size:12.8px;font-family:'Roboto Medium',sans-serif">12268.59</text><path  d="M 927 60
L 932 60" style="stroke-width:0;stroke:rgba(51,51,51,1.0);fill:none"/><text x="942" y="66" style="stroke-width:0;stroke:none;fill:rgba(51,51,51,1.0);font-size:12.8px;font-family:'Roboto Medium',sans-serif">13968.59</text><path  d="M 927 26
L 932 26" style="stroke-width:0;stroke:rgba(51,51,51,1.0);fill:none"/><text x="942" y="32" style="stroke-width:0;stroke:none;fill:rgba(51,51,51,1.0);font-size:12.8px;font-family:'Roboto Medium',sans-serif">15680.55</text><text x="461" y="25" style="stroke-width:0;stroke:none;fill:rgba(51,51,51,1.0);font-size:15.3px;font-family:'Roboto Medium',sans-serif">TimeAfterFunc</text></svg>